HIERARCHY
ROOT hip
{
	OFFSET 0.000000 0.000000 0.000000 
	CHANNELS 6 Xposition Yposition Zposition Xrotation Zrotation Yrotation
	JOINT abdomen
	{
		OFFSET 0.000000 3.402643 0.000000 
		CHANNELS 3 Xrotation Zrotation Yrotation
		JOINT chest
		{
			OFFSET 0.000000 8.438565 -0.680529 
			CHANNELS 3 Xrotation Zrotation Yrotation
			JOINT neck
			{
				OFFSET 0.000000 10.207942 -0.272212 
				CHANNELS 3 Xrotation Zrotation Yrotation
				JOINT head
				{
					OFFSET 0.000000 3.130431 0.000000 
					CHANNELS 3 Xrotation Zrotation Yrotation
					End Site
					{
						OFFSET 0.000000 3.130435 0.000000 
					}
				}
			}
			JOINT lCollar
			{
				OFFSET 3.470700 6.669187 -0.816635 
				CHANNELS 3 Yrotation Zrotation Xrotation
				JOINT lShldr
				{
					OFFSET 3.198488 0.000000 0.000000 
					CHANNELS 3 Zrotation Yrotation Xrotation
					JOINT lForeArm
					{
						OFFSET 10.139888 0.000000 0.000000 
						CHANNELS 3 Yrotation Zrotation Xrotation
						JOINT lHand
						{
							OFFSET 8.370511 0.000000 0.000000 
							CHANNELS 3 Zrotation Yrotation Xrotation
							End Site
							{
								OFFSET 4.083176 0.000000 0.000000 
							}
						}
					}
				}
			}
			JOINT rCollar
			{
				OFFSET -3.470700 6.669187 -0.816635 
				CHANNELS 3 Yrotation Zrotation Xrotation
				JOINT rShldr
				{
					OFFSET -3.198488 0.000000 0.000000 
					CHANNELS 3 Zrotation Yrotation Xrotation
					JOINT rForeArm
					{
						OFFSET -10.139888 0.000000 0.000000 
						CHANNELS 3 Yrotation Zrotation Xrotation
						JOINT rHand
						{
							OFFSET -8.370511 0.000000 0.000000 
							CHANNELS 3 Zrotation Yrotation Xrotation
							End Site
							{
								OFFSET -4.083176 0.000000 0.000000 
							}
						}
					}
				}
			}
		}
	}
	JOINT lThigh
	{
		OFFSET 5.308129 -1.633274 1.361059 
		CHANNELS 3 Xrotation Zrotation Yrotation
		JOINT lShin
		{
			OFFSET -2.041588 -20.007561 0.000000 
			CHANNELS 3 Xrotation Zrotation Yrotation
			JOINT lFoot
			{
				OFFSET 0.000000 -19.190928 -1.224953 
				CHANNELS 3 Xrotation Yrotation Zrotation
				End Site
				{
					OFFSET 0.000000 -2.449906 4.627600 
				}
			}
		}
	}
	JOINT rThigh
	{
		OFFSET -5.308129 -1.633274 1.361059 
		CHANNELS 3 Xrotation Zrotation Yrotation
		JOINT rShin
		{
			OFFSET 2.041588 -20.007561 0.000000 
			CHANNELS 3 Xrotation Zrotation Yrotation
			JOINT rFoot
			{
				OFFSET 0.000000 -19.190928 -1.224953 
				CHANNELS 3 Xrotation Yrotation Zrotation
				End Site
				{
					OFFSET 0.000000 -2.449906 4.627600 
				}
			}
		}
	}
}
MOTION
Frames: 8
Frame Time: 0.016667
0.565563 35.637955 -0.552260 9.650770 8.984500 -10.118300 -13.022700 2.227650 0.756979 12.360700 3.131810 0.291488 12.441200 16.399200 -16.403799 -8.603520 0.000000 0.000000 2.000000 -2.000000 0.000000 -82.406303 4.898460 132.033005 58.428200 -0.286430 0.116534 5.564020 0.355464 -153.716003 -2.000000 2.000000 0.000000 53.768501 16.565399 132.673996 -65.078598 0.272458 0.123997 6.596610 0.946827 -123.517998 -49.469143 -0.905313 -7.179186 66.519676 0.449442 4.300985 -27.529196 -9.202494 -3.394748 -50.129047 -18.725864 -14.976713 84.466797 1.238126 -4.861133 -29.399611 -8.366236 -3.173430 
0.263629 35.744114 -0.576709 9.591210 8.976420 -10.246200 -12.984000 2.249620 0.733336 12.458200 3.171250 0.281566 12.785500 15.950800 -16.086300 -8.603520 0.000000 0.000000 2.000000 -2.000000 0.000000 -82.522797 4.790370 131.613998 58.037601 -0.287222 0.116043 5.566480 0.292476 -153.091003 -2.000000 2.000000 0.000000 53.700401 16.565100 132.820999 -65.039597 0.272543 0.123958 6.596870 0.919857 -123.293999 -48.990734 -0.673406 -7.479236 65.940147 0.509902 4.269963 -27.347639 -8.738116 -3.067718 -49.838955 -18.285883 -15.157849 84.084160 1.211133 -4.861002 -29.387627 -8.298825 -3.124342 
-0.055060 35.851509 -0.615178 9.547370 8.813740 -10.613100 -13.013600 2.320210 0.755805 12.448000 3.229180 0.292308 13.127300 15.778400 -15.572800 -8.603520 0.000000 0.000000 2.000000 -2.000000 0.000000 -82.678398 4.848410 131.261993 57.764198 -0.287775 0.115697 5.568690 0.274412 -152.837006 -2.000000 2.000000 0.000000 53.280998 16.789400 133.026001 -64.590401 0.273513 0.123502 6.599390 0.913092 -123.235001 -48.674461 -0.143620 -8.269177 65.869797 0.554003 4.252727 -26.341532 -10.358373 -3.593461 -49.458824 -17.467161 -15.369539 83.525627 1.177167 -4.871344 -29.413080 -8.200834 -3.067403 
-0.373748 35.958794 -0.653649 9.513270 8.641130 -10.978300 -13.033500 2.390860 0.778546 12.437700 3.287110 0.303031 13.477900 15.589700 -15.071900 -8.603520 0.000000 0.000000 2.000000 -2.000000 0.000000 -82.834000 4.906470 130.919998 57.500500 -0.288306 0.115360 5.566320 0.247714 -152.574005 -2.000000 2.000000 0.000000 52.851799 17.023500 133.225006 -64.141098 0.274479 0.123038 6.601740 0.906581 -123.186996 -48.354710 0.389973 -9.059761 65.809998 0.584740 4.245921 -25.378477 -12.024929 -4.109240 -49.089882 -16.641157 -15.546948 82.974998 1.127763 -4.845103 -29.462284 -8.126492 -3.030560 
-0.696128 36.052593 -0.667388 9.338290 8.356180 -11.393600 -12.994400 2.489400 0.876436 12.496400 3.287580 0.355219 13.875300 15.516200 -14.699300 -8.603520 0.000000 0.000000 2.000000 -2.000000 0.000000 -82.814400 4.984530 130.880997 57.158699 -0.288993 0.114920 5.570570 0.256511 -152.621994 -2.000000 2.000000 0.000000 52.803200 17.042801 133.332001 -64.082603 0.274605 0.122977 6.598960 0.887128 -123.041000 -47.732559 0.960132 -9.683760 65.602287 0.628884 4.215227 -25.066826 -12.239235 -4.094826 -48.410652 -15.829605 -15.984836 82.230385 1.088278 -4.854528 -29.456732 -8.011734 -3.006625 
-1.018509 36.146286 -0.681129 9.173440 8.061030 -11.817100 -12.955300 2.597480 0.972218 12.564900 3.288140 0.407968 14.274800 15.428400 -14.318200 -8.603520 0.000000 0.000000 2.000000 -2.000000 0.000000 -82.794800 5.072350 130.832001 56.826698 -0.289657 0.114488 5.570350 0.256623 -152.671005 -2.000000 2.000000 0.000000 52.754501 17.062201 133.429993 -64.014198 0.274752 0.122906 6.596090 0.867795 -122.893997 -47.192429 1.529851 -10.284968 65.423767 0.688741 4.192651 -24.745512 -12.498601 -4.073149 -47.744286 -15.004302 -16.416685 81.631050 1.020698 -4.844912 -29.583998 -7.903176 -2.964067 
-1.266198 36.208744 -0.702315 9.054460 8.034730 -12.267800 -13.071600 2.504810 0.999216 12.410100 3.064520 0.430779 14.705500 14.660700 -13.962600 -8.603520 0.000000 0.000000 2.000000 -2.000000 0.000000 -82.813599 5.110790 130.432007 56.289600 -0.290727 0.113782 5.566410 0.247671 -152.554001 -2.000000 2.000000 0.000000 52.491299 17.139999 133.645004 -63.672401 0.275484 0.122546 6.601720 0.879972 -122.961998 -46.790951 1.756692 -10.407664 65.118454 0.730119 4.164141 -24.739506 -10.831953 -3.284011 -47.405087 -14.599408 -16.744846 81.238205 1.007479 -4.821294 -29.599007 -7.769102 -2.856870 
-1.513881 36.271206 -0.723500 8.945360 8.008170 -12.726800 -13.187900 2.412220 1.026610 12.255300 2.850720 0.463169 15.114500 13.889000 -13.599000 -8.603520 0.000000 0.000000 2.000000 -2.000000 0.000000 -82.842201 5.149220 130.020996 55.752399 -0.291790 0.113066 5.567750 0.230042 -152.427002 -2.000000 2.000000 0.000000 52.218300 17.217699 133.860001 -63.320801 0.276234 0.122172 6.598960 0.887128 -123.041000 -46.390133 1.974509 -10.545159 64.823296 0.763439 4.139812 -24.776276 -9.172582 -2.482826 -47.089878 -14.213135 -17.080412 80.884544 0.966238 -4.816231 -29.600880 -7.603485 -2.727736 
